<svg xmlns="http://www.w3.org/2000/svg" viewBox="0 0 800 500" width="800" height="500">
  <defs>
    <linearGradient id="grad-bursary-dashboard" x1="0%" y1="0%" x2="100%" y2="100%">
      <stop offset="0%" style="stop-color:#0f172a;stop-opacity:1" />
      <stop offset="100%" style="stop-color:#0a0a0a;stop-opacity:1" />
    </linearGradient>
    <pattern id="grid-bursary-dashboard" width="40" height="40" patternUnits="userSpaceOnUse">
      <path d="M 40 0 L 0 0 0 40" fill="none" stroke="#3b82f6" stroke-width="0.5" opacity="0.06"/>
    </pattern>
  </defs>
  <rect width="800" height="500" fill="url(#grad-bursary-dashboard)" />
  <rect width="800" height="500" fill="url(#grid-bursary-dashboard)" />
  <circle cx="657" cy="137" r="117" fill="#3b82f6" opacity="0.05"/>
  <circle cx="194" cy="226" r="90" fill="#3b82f6" opacity="0.06"/>
  <circle cx="331" cy="315" r="63" fill="#3b82f6" opacity="0.07"/>
  <circle cx="468" cy="404" r="116" fill="#3b82f6" opacity="0.03"/>
  <circle cx="605" cy="153" r="89" fill="#3b82f6" opacity="0.04"/>
  <circle cx="142" cy="242" r="62" fill="#3b82f6" opacity="0.05"/>
  <line x1="157" y1="257" x2="294" y2="364" stroke="#3b82f6" stroke-width="1" opacity="0.05"/>
  <line x1="204" y1="328" x2="334" y2="422" stroke="#3b82f6" stroke-width="1" opacity="0.04"/>
  <line x1="251" y1="399" x2="374" y2="480" stroke="#3b82f6" stroke-width="1" opacity="0.07"/>
  <line x1="298" y1="470" x2="414" y2="538" stroke="#3b82f6" stroke-width="1" opacity="0.06"/>
  <line x1="345" y1="41" x2="454" y2="96" stroke="#3b82f6" stroke-width="1" opacity="0.05"/>
  <line x1="392" y1="112" x2="494" y2="154" stroke="#3b82f6" stroke-width="1" opacity="0.04"/>
  <line x1="439" y1="183" x2="534" y2="292" stroke="#3b82f6" stroke-width="1" opacity="0.07"/>
  <line x1="486" y1="254" x2="574" y2="350" stroke="#3b82f6" stroke-width="1" opacity="0.06"/>
  <rect x="40" y="40" width="720" height="420" rx="12" fill="none" stroke="#3b82f6" stroke-width="1" opacity="0.15"/>
  <text x="400" y="240" text-anchor="middle" font-family="system-ui, -apple-system, sans-serif" font-size="96" font-weight="700" fill="#3b82f6" opacity="0.12" letter-spacing="-2">BD</text>
  <text x="400" y="280" text-anchor="middle" font-family="system-ui, -apple-system, sans-serif" font-size="28" font-weight="600" fill="#e5e5e5" opacity="0.9">Bursary Dashboard</text>
  <rect x="340" y="310" width="120" height="3" rx="1.5" fill="#3b82f6" opacity="0.4"/>
</svg>