<svg xmlns="http://www.w3.org/2000/svg" viewBox="0 0 800 500" width="800" height="500">
  <defs>
    <linearGradient id="grad-daglore-website" x1="0%" y1="0%" x2="100%" y2="100%">
      <stop offset="0%" style="stop-color:#0f172a;stop-opacity:1" />
      <stop offset="100%" style="stop-color:#0a0a0a;stop-opacity:1" />
    </linearGradient>
    <pattern id="grid-daglore-website" width="40" height="40" patternUnits="userSpaceOnUse">
      <path d="M 40 0 L 0 0 0 40" fill="none" stroke="#3b82f6" stroke-width="0.5" opacity="0.06"/>
    </pattern>
  </defs>
  <rect width="800" height="500" fill="url(#grad-daglore-website)" />
  <rect width="800" height="500" fill="url(#grid-daglore-website)" />
  <circle cx="434" cy="254" r="54" fill="#3b82f6" opacity="0.07"/>
  <circle cx="571" cy="343" r="107" fill="#3b82f6" opacity="0.03"/>
  <circle cx="108" cy="92" r="80" fill="#3b82f6" opacity="0.04"/>
  <circle cx="245" cy="181" r="53" fill="#3b82f6" opacity="0.05"/>
  <circle cx="382" cy="270" r="106" fill="#3b82f6" opacity="0.06"/>
  <circle cx="519" cy="359" r="79" fill="#3b82f6" opacity="0.07"/>
  <line x1="734" y1="34" x2="888" y2="78" stroke="#3b82f6" stroke-width="1" opacity="0.06"/>
  <line x1="781" y1="105" x2="928" y2="136" stroke="#3b82f6" stroke-width="1" opacity="0.05"/>
  <line x1="28" y1="176" x2="168" y2="274" stroke="#3b82f6" stroke-width="1" opacity="0.04"/>
  <line x1="75" y1="247" x2="208" y2="332" stroke="#3b82f6" stroke-width="1" opacity="0.07"/>
  <line x1="122" y1="318" x2="248" y2="390" stroke="#3b82f6" stroke-width="1" opacity="0.06"/>
  <line x1="169" y1="389" x2="288" y2="448" stroke="#3b82f6" stroke-width="1" opacity="0.05"/>
  <line x1="216" y1="460" x2="328" y2="506" stroke="#3b82f6" stroke-width="1" opacity="0.04"/>
  <line x1="263" y1="31" x2="368" y2="64" stroke="#3b82f6" stroke-width="1" opacity="0.07"/>
  <rect x="40" y="40" width="720" height="420" rx="12" fill="none" stroke="#3b82f6" stroke-width="1" opacity="0.15"/>
  <text x="400" y="240" text-anchor="middle" font-family="system-ui, -apple-system, sans-serif" font-size="96" font-weight="700" fill="#3b82f6" opacity="0.12" letter-spacing="-2">DW</text>
  <text x="400" y="280" text-anchor="middle" font-family="system-ui, -apple-system, sans-serif" font-size="28" font-weight="600" fill="#e5e5e5" opacity="0.9">Daglore Website</text>
  <rect x="340" y="310" width="120" height="3" rx="1.5" fill="#3b82f6" opacity="0.4"/>
</svg>