<svg xmlns="http://www.w3.org/2000/svg" viewBox="0 0 800 500" width="800" height="500">
  <defs>
    <linearGradient id="grad-ecommerce-api" x1="0%" y1="0%" x2="100%" y2="100%">
      <stop offset="0%" style="stop-color:#0f172a;stop-opacity:1" />
      <stop offset="100%" style="stop-color:#0a0a0a;stop-opacity:1" />
    </linearGradient>
    <pattern id="grid-ecommerce-api" width="40" height="40" patternUnits="userSpaceOnUse">
      <path d="M 40 0 L 0 0 0 40" fill="none" stroke="#3b82f6" stroke-width="0.5" opacity="0.06"/>
    </pattern>
  </defs>
  <rect width="800" height="500" fill="url(#grad-ecommerce-api)" />
  <rect width="800" height="500" fill="url(#grid-ecommerce-api)" />
  <circle cx="203" cy="363" r="63" fill="#3b82f6" opacity="0.06"/>
  <circle cx="340" cy="112" r="116" fill="#3b82f6" opacity="0.07"/>
  <circle cx="477" cy="201" r="89" fill="#3b82f6" opacity="0.03"/>
  <circle cx="614" cy="290" r="62" fill="#3b82f6" opacity="0.04"/>
  <circle cx="151" cy="379" r="115" fill="#3b82f6" opacity="0.05"/>
  <circle cx="288" cy="128" r="88" fill="#3b82f6" opacity="0.06"/>
  <line x1="503" y1="303" x2="666" y2="356" stroke="#3b82f6" stroke-width="1" opacity="0.07"/>
  <line x1="550" y1="374" x2="706" y2="414" stroke="#3b82f6" stroke-width="1" opacity="0.06"/>
  <line x1="597" y1="445" x2="746" y2="552" stroke="#3b82f6" stroke-width="1" opacity="0.05"/>
  <line x1="644" y1="16" x2="786" y2="110" stroke="#3b82f6" stroke-width="1" opacity="0.04"/>
  <line x1="691" y1="87" x2="826" y2="168" stroke="#3b82f6" stroke-width="1" opacity="0.07"/>
  <line x1="738" y1="158" x2="866" y2="226" stroke="#3b82f6" stroke-width="1" opacity="0.06"/>
  <line x1="785" y1="229" x2="906" y2="284" stroke="#3b82f6" stroke-width="1" opacity="0.05"/>
  <line x1="32" y1="300" x2="146" y2="342" stroke="#3b82f6" stroke-width="1" opacity="0.04"/>
  <rect x="40" y="40" width="720" height="420" rx="12" fill="none" stroke="#3b82f6" stroke-width="1" opacity="0.15"/>
  <text x="400" y="240" text-anchor="middle" font-family="system-ui, -apple-system, sans-serif" font-size="96" font-weight="700" fill="#3b82f6" opacity="0.12" letter-spacing="-2">EA</text>
  <text x="400" y="280" text-anchor="middle" font-family="system-ui, -apple-system, sans-serif" font-size="28" font-weight="600" fill="#e5e5e5" opacity="0.9">E-Commerce API</text>
  <rect x="340" y="310" width="120" height="3" rx="1.5" fill="#3b82f6" opacity="0.4"/>
</svg>