<svg xmlns="http://www.w3.org/2000/svg" viewBox="0 0 800 500" width="800" height="500">
  <defs>
    <linearGradient id="grad-flashcard-saas" x1="0%" y1="0%" x2="100%" y2="100%">
      <stop offset="0%" style="stop-color:#1a0f2e;stop-opacity:1" />
      <stop offset="100%" style="stop-color:#0a0a0a;stop-opacity:1" />
    </linearGradient>
    <pattern id="grid-flashcard-saas" width="40" height="40" patternUnits="userSpaceOnUse">
      <path d="M 40 0 L 0 0 0 40" fill="none" stroke="#a855f7" stroke-width="0.5" opacity="0.06"/>
    </pattern>
  </defs>
  <rect width="800" height="500" fill="url(#grad-flashcard-saas)" />
  <rect width="800" height="500" fill="url(#grid-flashcard-saas)" />
  <circle cx="305" cy="125" r="85" fill="#a855f7" opacity="0.03"/>
  <circle cx="442" cy="214" r="58" fill="#a855f7" opacity="0.04"/>
  <circle cx="579" cy="303" r="111" fill="#a855f7" opacity="0.05"/>
  <circle cx="116" cy="392" r="84" fill="#a855f7" opacity="0.06"/>
  <circle cx="253" cy="141" r="57" fill="#a855f7" opacity="0.07"/>
  <circle cx="390" cy="230" r="110" fill="#a855f7" opacity="0.03"/>
  <line x1="605" y1="405" x2="750" y2="480" stroke="#a855f7" stroke-width="1" opacity="0.05"/>
  <line x1="652" y1="476" x2="790" y2="538" stroke="#a855f7" stroke-width="1" opacity="0.04"/>
  <line x1="699" y1="47" x2="830" y2="96" stroke="#a855f7" stroke-width="1" opacity="0.07"/>
  <line x1="746" y1="118" x2="870" y2="154" stroke="#a855f7" stroke-width="1" opacity="0.06"/>
  <line x1="793" y1="189" x2="910" y2="292" stroke="#a855f7" stroke-width="1" opacity="0.05"/>
  <line x1="40" y1="260" x2="150" y2="350" stroke="#a855f7" stroke-width="1" opacity="0.04"/>
  <line x1="87" y1="331" x2="190" y2="408" stroke="#a855f7" stroke-width="1" opacity="0.07"/>
  <line x1="134" y1="402" x2="230" y2="466" stroke="#a855f7" stroke-width="1" opacity="0.06"/>
  <rect x="40" y="40" width="720" height="420" rx="12" fill="none" stroke="#a855f7" stroke-width="1" opacity="0.15"/>
  <text x="400" y="240" text-anchor="middle" font-family="system-ui, -apple-system, sans-serif" font-size="96" font-weight="700" fill="#a855f7" opacity="0.12" letter-spacing="-2">FS</text>
  <text x="400" y="280" text-anchor="middle" font-family="system-ui, -apple-system, sans-serif" font-size="28" font-weight="600" fill="#e5e5e5" opacity="0.9">Flashcard SaaS</text>
  <rect x="340" y="310" width="120" height="3" rx="1.5" fill="#a855f7" opacity="0.4"/>
</svg>