<svg xmlns="http://www.w3.org/2000/svg" viewBox="0 0 800 500" width="800" height="500">
  <defs>
    <linearGradient id="grad-hospital-chatbot" x1="0%" y1="0%" x2="100%" y2="100%">
      <stop offset="0%" style="stop-color:#1a0f2e;stop-opacity:1" />
      <stop offset="100%" style="stop-color:#0a0a0a;stop-opacity:1" />
    </linearGradient>
    <pattern id="grid-hospital-chatbot" width="40" height="40" patternUnits="userSpaceOnUse">
      <path d="M 40 0 L 0 0 0 40" fill="none" stroke="#a855f7" stroke-width="0.5" opacity="0.06"/>
    </pattern>
  </defs>
  <rect width="800" height="500" fill="url(#grad-hospital-chatbot)" />
  <rect width="800" height="500" fill="url(#grid-hospital-chatbot)" />
  <circle cx="554" cy="374" r="94" fill="#a855f7" opacity="0.07"/>
  <circle cx="691" cy="123" r="67" fill="#a855f7" opacity="0.03"/>
  <circle cx="228" cy="212" r="40" fill="#a855f7" opacity="0.04"/>
  <circle cx="365" cy="301" r="93" fill="#a855f7" opacity="0.05"/>
  <circle cx="502" cy="390" r="66" fill="#a855f7" opacity="0.06"/>
  <circle cx="639" cy="139" r="119" fill="#a855f7" opacity="0.07"/>
  <line x1="54" y1="154" x2="208" y2="238" stroke="#a855f7" stroke-width="1" opacity="0.06"/>
  <line x1="101" y1="225" x2="248" y2="296" stroke="#a855f7" stroke-width="1" opacity="0.05"/>
  <line x1="148" y1="296" x2="288" y2="354" stroke="#a855f7" stroke-width="1" opacity="0.04"/>
  <line x1="195" y1="367" x2="328" y2="412" stroke="#a855f7" stroke-width="1" opacity="0.07"/>
  <line x1="242" y1="438" x2="368" y2="470" stroke="#a855f7" stroke-width="1" opacity="0.06"/>
  <line x1="289" y1="9" x2="408" y2="108" stroke="#a855f7" stroke-width="1" opacity="0.05"/>
  <line x1="336" y1="80" x2="448" y2="166" stroke="#a855f7" stroke-width="1" opacity="0.04"/>
  <line x1="383" y1="151" x2="488" y2="224" stroke="#a855f7" stroke-width="1" opacity="0.07"/>
  <rect x="40" y="40" width="720" height="420" rx="12" fill="none" stroke="#a855f7" stroke-width="1" opacity="0.15"/>
  <text x="400" y="240" text-anchor="middle" font-family="system-ui, -apple-system, sans-serif" font-size="96" font-weight="700" fill="#a855f7" opacity="0.12" letter-spacing="-2">HC</text>
  <text x="400" y="280" text-anchor="middle" font-family="system-ui, -apple-system, sans-serif" font-size="28" font-weight="600" fill="#e5e5e5" opacity="0.9">Hospital Chatbot</text>
  <rect x="340" y="310" width="120" height="3" rx="1.5" fill="#a855f7" opacity="0.4"/>
</svg>