<svg xmlns="http://www.w3.org/2000/svg" viewBox="0 0 800 500" width="800" height="500">
  <defs>
    <linearGradient id="grad-inventory-dashboard" x1="0%" y1="0%" x2="100%" y2="100%">
      <stop offset="0%" style="stop-color:#1a0f2e;stop-opacity:1" />
      <stop offset="100%" style="stop-color:#0a0a0a;stop-opacity:1" />
    </linearGradient>
    <pattern id="grid-inventory-dashboard" width="40" height="40" patternUnits="userSpaceOnUse">
      <path d="M 40 0 L 0 0 0 40" fill="none" stroke="#a855f7" stroke-width="0.5" opacity="0.06"/>
    </pattern>
  </defs>
  <rect width="800" height="500" fill="url(#grad-inventory-dashboard)" />
  <rect width="800" height="500" fill="url(#grid-inventory-dashboard)" />
  <circle cx="287" cy="367" r="107" fill="#a855f7" opacity="0.05"/>
  <circle cx="424" cy="116" r="80" fill="#a855f7" opacity="0.06"/>
  <circle cx="561" cy="205" r="53" fill="#a855f7" opacity="0.07"/>
  <circle cx="698" cy="294" r="106" fill="#a855f7" opacity="0.03"/>
  <circle cx="235" cy="383" r="79" fill="#a855f7" opacity="0.04"/>
  <circle cx="372" cy="132" r="52" fill="#a855f7" opacity="0.05"/>
  <line x1="387" y1="487" x2="514" y2="584" stroke="#a855f7" stroke-width="1" opacity="0.07"/>
  <line x1="434" y1="58" x2="554" y2="142" stroke="#a855f7" stroke-width="1" opacity="0.06"/>
  <line x1="481" y1="129" x2="594" y2="200" stroke="#a855f7" stroke-width="1" opacity="0.05"/>
  <line x1="528" y1="200" x2="634" y2="258" stroke="#a855f7" stroke-width="1" opacity="0.04"/>
  <line x1="575" y1="271" x2="674" y2="316" stroke="#a855f7" stroke-width="1" opacity="0.07"/>
  <line x1="622" y1="342" x2="714" y2="374" stroke="#a855f7" stroke-width="1" opacity="0.06"/>
  <line x1="669" y1="413" x2="754" y2="512" stroke="#a855f7" stroke-width="1" opacity="0.05"/>
  <line x1="716" y1="484" x2="794" y2="570" stroke="#a855f7" stroke-width="1" opacity="0.04"/>
  <rect x="40" y="40" width="720" height="420" rx="12" fill="none" stroke="#a855f7" stroke-width="1" opacity="0.15"/>
  <text x="400" y="240" text-anchor="middle" font-family="system-ui, -apple-system, sans-serif" font-size="96" font-weight="700" fill="#a855f7" opacity="0.12" letter-spacing="-2">ID</text>
  <text x="400" y="280" text-anchor="middle" font-family="system-ui, -apple-system, sans-serif" font-size="28" font-weight="600" fill="#e5e5e5" opacity="0.9">Inventory Dashboard</text>
  <rect x="340" y="310" width="120" height="3" rx="1.5" fill="#a855f7" opacity="0.4"/>
</svg>