<svg xmlns="http://www.w3.org/2000/svg" viewBox="0 0 800 500" width="800" height="500">
  <defs>
    <linearGradient id="grad-learn-your-facts" x1="0%" y1="0%" x2="100%" y2="100%">
      <stop offset="0%" style="stop-color:#1a0f2e;stop-opacity:1" />
      <stop offset="100%" style="stop-color:#0a0a0a;stop-opacity:1" />
    </linearGradient>
    <pattern id="grid-learn-your-facts" width="40" height="40" patternUnits="userSpaceOnUse">
      <path d="M 40 0 L 0 0 0 40" fill="none" stroke="#a855f7" stroke-width="0.5" opacity="0.06"/>
    </pattern>
  </defs>
  <rect width="800" height="500" fill="url(#grad-learn-your-facts)" />
  <rect width="800" height="500" fill="url(#grid-learn-your-facts)" />
  <circle cx="512" cy="332" r="52" fill="#a855f7" opacity="0.05"/>
  <circle cx="649" cy="81" r="105" fill="#a855f7" opacity="0.06"/>
  <circle cx="186" cy="170" r="78" fill="#a855f7" opacity="0.07"/>
  <circle cx="323" cy="259" r="51" fill="#a855f7" opacity="0.03"/>
  <circle cx="460" cy="348" r="104" fill="#a855f7" opacity="0.04"/>
  <circle cx="597" cy="97" r="77" fill="#a855f7" opacity="0.05"/>
  <line x1="12" y1="112" x2="124" y2="154" stroke="#a855f7" stroke-width="1" opacity="0.04"/>
  <line x1="59" y1="183" x2="164" y2="292" stroke="#a855f7" stroke-width="1" opacity="0.07"/>
  <line x1="106" y1="254" x2="204" y2="350" stroke="#a855f7" stroke-width="1" opacity="0.06"/>
  <line x1="153" y1="325" x2="244" y2="408" stroke="#a855f7" stroke-width="1" opacity="0.05"/>
  <line x1="200" y1="396" x2="284" y2="466" stroke="#a855f7" stroke-width="1" opacity="0.04"/>
  <line x1="247" y1="467" x2="324" y2="524" stroke="#a855f7" stroke-width="1" opacity="0.07"/>
  <line x1="294" y1="38" x2="364" y2="82" stroke="#a855f7" stroke-width="1" opacity="0.06"/>
  <line x1="341" y1="109" x2="404" y2="140" stroke="#a855f7" stroke-width="1" opacity="0.05"/>
  <rect x="40" y="40" width="720" height="420" rx="12" fill="none" stroke="#a855f7" stroke-width="1" opacity="0.15"/>
  <text x="400" y="240" text-anchor="middle" font-family="system-ui, -apple-system, sans-serif" font-size="96" font-weight="700" fill="#a855f7" opacity="0.12" letter-spacing="-2">LY</text>
  <text x="400" y="280" text-anchor="middle" font-family="system-ui, -apple-system, sans-serif" font-size="28" font-weight="600" fill="#e5e5e5" opacity="0.9">Learn Your Facts</text>
  <rect x="340" y="310" width="120" height="3" rx="1.5" fill="#a855f7" opacity="0.4"/>
</svg>