<svg xmlns="http://www.w3.org/2000/svg" viewBox="0 0 800 500" width="800" height="500">
  <defs>
    <linearGradient id="grad-logbook-generator" x1="0%" y1="0%" x2="100%" y2="100%">
      <stop offset="0%" style="stop-color:#1a0f2e;stop-opacity:1" />
      <stop offset="100%" style="stop-color:#0a0a0a;stop-opacity:1" />
    </linearGradient>
    <pattern id="grid-logbook-generator" width="40" height="40" patternUnits="userSpaceOnUse">
      <path d="M 40 0 L 0 0 0 40" fill="none" stroke="#a855f7" stroke-width="0.5" opacity="0.06"/>
    </pattern>
  </defs>
  <rect width="800" height="500" fill="url(#grad-logbook-generator)" />
  <rect width="800" height="500" fill="url(#grid-logbook-generator)" />
  <circle cx="661" cy="141" r="41" fill="#a855f7" opacity="0.04"/>
  <circle cx="198" cy="230" r="94" fill="#a855f7" opacity="0.05"/>
  <circle cx="335" cy="319" r="67" fill="#a855f7" opacity="0.06"/>
  <circle cx="472" cy="408" r="40" fill="#a855f7" opacity="0.07"/>
  <circle cx="609" cy="157" r="93" fill="#a855f7" opacity="0.03"/>
  <circle cx="146" cy="246" r="66" fill="#a855f7" opacity="0.04"/>
  <line x1="161" y1="261" x2="302" y2="292" stroke="#a855f7" stroke-width="1" opacity="0.05"/>
  <line x1="208" y1="332" x2="342" y2="430" stroke="#a855f7" stroke-width="1" opacity="0.04"/>
  <line x1="255" y1="403" x2="382" y2="488" stroke="#a855f7" stroke-width="1" opacity="0.07"/>
  <line x1="302" y1="474" x2="422" y2="546" stroke="#a855f7" stroke-width="1" opacity="0.06"/>
  <line x1="349" y1="45" x2="462" y2="104" stroke="#a855f7" stroke-width="1" opacity="0.05"/>
  <line x1="396" y1="116" x2="502" y2="162" stroke="#a855f7" stroke-width="1" opacity="0.04"/>
  <line x1="443" y1="187" x2="542" y2="220" stroke="#a855f7" stroke-width="1" opacity="0.07"/>
  <line x1="490" y1="258" x2="582" y2="358" stroke="#a855f7" stroke-width="1" opacity="0.06"/>
  <rect x="40" y="40" width="720" height="420" rx="12" fill="none" stroke="#a855f7" stroke-width="1" opacity="0.15"/>
  <text x="400" y="240" text-anchor="middle" font-family="system-ui, -apple-system, sans-serif" font-size="96" font-weight="700" fill="#a855f7" opacity="0.12" letter-spacing="-2">LG</text>
  <text x="400" y="280" text-anchor="middle" font-family="system-ui, -apple-system, sans-serif" font-size="28" font-weight="600" fill="#e5e5e5" opacity="0.9">Logbook Generator</text>
  <rect x="340" y="310" width="120" height="3" rx="1.5" fill="#a855f7" opacity="0.4"/>
</svg>