<svg xmlns="http://www.w3.org/2000/svg" viewBox="0 0 800 500" width="800" height="500">
  <defs>
    <linearGradient id="grad-ml-portfolio" x1="0%" y1="0%" x2="100%" y2="100%">
      <stop offset="0%" style="stop-color:#1a0f05;stop-opacity:1" />
      <stop offset="100%" style="stop-color:#0a0a0a;stop-opacity:1" />
    </linearGradient>
    <pattern id="grid-ml-portfolio" width="40" height="40" patternUnits="userSpaceOnUse">
      <path d="M 40 0 L 0 0 0 40" fill="none" stroke="#f97316" stroke-width="0.5" opacity="0.06"/>
    </pattern>
  </defs>
  <rect width="800" height="500" fill="url(#grad-ml-portfolio)" />
  <rect width="800" height="500" fill="url(#grid-ml-portfolio)" />
  <circle cx="152" cy="312" r="92" fill="#f97316" opacity="0.05"/>
  <circle cx="289" cy="401" r="65" fill="#f97316" opacity="0.06"/>
  <circle cx="426" cy="150" r="118" fill="#f97316" opacity="0.07"/>
  <circle cx="563" cy="239" r="91" fill="#f97316" opacity="0.03"/>
  <circle cx="100" cy="328" r="64" fill="#f97316" opacity="0.04"/>
  <circle cx="237" cy="417" r="117" fill="#f97316" opacity="0.05"/>
  <line x1="452" y1="252" x2="564" y2="334" stroke="#f97316" stroke-width="1" opacity="0.04"/>
  <line x1="499" y1="323" x2="604" y2="392" stroke="#f97316" stroke-width="1" opacity="0.07"/>
  <line x1="546" y1="394" x2="644" y2="450" stroke="#f97316" stroke-width="1" opacity="0.06"/>
  <line x1="593" y1="465" x2="684" y2="508" stroke="#f97316" stroke-width="1" opacity="0.05"/>
  <line x1="640" y1="36" x2="724" y2="66" stroke="#f97316" stroke-width="1" opacity="0.04"/>
  <line x1="687" y1="107" x2="764" y2="204" stroke="#f97316" stroke-width="1" opacity="0.07"/>
  <line x1="734" y1="178" x2="804" y2="262" stroke="#f97316" stroke-width="1" opacity="0.06"/>
  <line x1="781" y1="249" x2="844" y2="320" stroke="#f97316" stroke-width="1" opacity="0.05"/>
  <rect x="40" y="40" width="720" height="420" rx="12" fill="none" stroke="#f97316" stroke-width="1" opacity="0.15"/>
  <text x="400" y="240" text-anchor="middle" font-family="system-ui, -apple-system, sans-serif" font-size="96" font-weight="700" fill="#f97316" opacity="0.12" letter-spacing="-2">MP</text>
  <text x="400" y="280" text-anchor="middle" font-family="system-ui, -apple-system, sans-serif" font-size="28" font-weight="600" fill="#e5e5e5" opacity="0.9">ML Portfolio</text>
  <rect x="340" y="310" width="120" height="3" rx="1.5" fill="#f97316" opacity="0.4"/>
</svg>