<svg xmlns="http://www.w3.org/2000/svg" viewBox="0 0 800 500" width="800" height="500">
  <defs>
    <linearGradient id="grad-task-dashboard" x1="0%" y1="0%" x2="100%" y2="100%">
      <stop offset="0%" style="stop-color:#0f172a;stop-opacity:1" />
      <stop offset="100%" style="stop-color:#0a0a0a;stop-opacity:1" />
    </linearGradient>
    <pattern id="grid-task-dashboard" width="40" height="40" patternUnits="userSpaceOnUse">
      <path d="M 40 0 L 0 0 0 40" fill="none" stroke="#3b82f6" stroke-width="0.5" opacity="0.06"/>
    </pattern>
  </defs>
  <rect width="800" height="500" fill="url(#grad-task-dashboard)" />
  <rect width="800" height="500" fill="url(#grid-task-dashboard)" />
  <circle cx="316" cy="136" r="96" fill="#3b82f6" opacity="0.04"/>
  <circle cx="453" cy="225" r="69" fill="#3b82f6" opacity="0.05"/>
  <circle cx="590" cy="314" r="42" fill="#3b82f6" opacity="0.06"/>
  <circle cx="127" cy="403" r="95" fill="#3b82f6" opacity="0.07"/>
  <circle cx="264" cy="152" r="68" fill="#3b82f6" opacity="0.03"/>
  <circle cx="401" cy="241" r="41" fill="#3b82f6" opacity="0.04"/>
  <line x1="616" y1="416" x2="772" y2="502" stroke="#3b82f6" stroke-width="1" opacity="0.04"/>
  <line x1="663" y1="487" x2="812" y2="560" stroke="#3b82f6" stroke-width="1" opacity="0.07"/>
  <line x1="710" y1="58" x2="852" y2="118" stroke="#3b82f6" stroke-width="1" opacity="0.06"/>
  <line x1="757" y1="129" x2="892" y2="176" stroke="#3b82f6" stroke-width="1" opacity="0.05"/>
  <line x1="4" y1="200" x2="132" y2="234" stroke="#3b82f6" stroke-width="1" opacity="0.04"/>
  <line x1="51" y1="271" x2="172" y2="372" stroke="#3b82f6" stroke-width="1" opacity="0.07"/>
  <line x1="98" y1="342" x2="212" y2="430" stroke="#3b82f6" stroke-width="1" opacity="0.06"/>
  <line x1="145" y1="413" x2="252" y2="488" stroke="#3b82f6" stroke-width="1" opacity="0.05"/>
  <rect x="40" y="40" width="720" height="420" rx="12" fill="none" stroke="#3b82f6" stroke-width="1" opacity="0.15"/>
  <text x="400" y="240" text-anchor="middle" font-family="system-ui, -apple-system, sans-serif" font-size="96" font-weight="700" fill="#3b82f6" opacity="0.12" letter-spacing="-2">TD</text>
  <text x="400" y="280" text-anchor="middle" font-family="system-ui, -apple-system, sans-serif" font-size="28" font-weight="600" fill="#e5e5e5" opacity="0.9">Task Dashboard</text>
  <rect x="340" y="310" width="120" height="3" rx="1.5" fill="#3b82f6" opacity="0.4"/>
</svg>