<svg xmlns="http://www.w3.org/2000/svg" viewBox="0 0 64 64">
  <defs>
    <linearGradient id="starGrad" x1="0%" y1="0%" x2="100%" y2="100%">
      <stop offset="0%" style="stop-color:#ffffff;stop-opacity:1" />
      <stop offset="100%" style="stop-color:#a5f3fc;stop-opacity:1" />
    </linearGradient>
    <filter id="glow">
      <feGaussianBlur stdDeviation="2" result="coloredBlur"/>
      <feMerge>
        <feMergeNode in="coloredBlur"/>
        <feMergeNode in="SourceGraphic"/>
      </feMerge>
    </filter>
  </defs>
  
  <!-- Background: Deep matte black for contrast -->
  <rect x="0" y="0" width="64" height="64" rx="16" fill="#0a0a0a" />
  
  <!-- The "Spark": A 4-pointed star representing innovation/AI -->
  <!-- Centered at 32,32 -->
  <path d="M32 12 C 34 24, 34 24, 46 26 C 58 28, 58 28, 46 38 C 50 50, 50 50, 32 52 C 14 50, 14 50, 18 38 C 6 28, 6 28, 18 26 C 30 24, 30 24, 32 12 Z" 
        fill="none" stroke="none" /> 
        
  <!-- Cleaner Geometric Spark -->
  <path d="M32 10 Q 36 26 52 32 Q 36 38 32 54 Q 28 38 12 32 Q 28 26 32 10 Z"
        fill="url(#starGrad)" filter="url(#glow)" />
        
</svg>